<?xml version="1.0" standalone="no"?>
<!DOCTYPE svg PUBLIC "-//W3C//DTD SVG 20010904//EN"
 "http://www.w3.org/TR/2001/REC-SVG-20010904/DTD/svg10.dtd">
<svg version="1.0" xmlns="http://www.w3.org/2000/svg"
 width="500.000000pt" height="500.000000pt" viewBox="0 0 500.000000 500.000000"
 preserveAspectRatio="xMidYMid meet">

<g transform="translate(0.000000,500.000000) scale(0.100000,-0.100000)"
fill="#000000" stroke="none">
<path d="M0 2500 l0 -2500 2500 0 2500 0 0 2500 0 2500 -2500 0 -2500 0 0
-2500z m2731 1485 c64 -33 79 -37 131 -33 66 5 68 3 68 -76 0 -50 -2 -53 -35
-68 -35 -15 -35 -15 -35 8 0 13 -4 24 -10 24 -17 0 -10 -44 20 -145 9 -27 9
-25 5 11 -4 35 -2 42 15 47 18 4 20 0 20 -35 0 -49 -19 -126 -33 -135 -6 -4
-8 0 -4 10 20 48 20 53 5 33 -13 -17 -19 -18 -44 -8 -16 6 -38 10 -48 9 -28
-3 -30 18 -3 30 19 9 23 17 19 47 -4 37 -22 41 -22 4 0 -12 -19 -42 -42 -68
-24 -26 -53 -62 -65 -81 l-23 -34 -1 35 c-1 33 -2 34 -8 7 -6 -28 -6 -28 -81
48 l-74 75 -4 98 -4 98 36 27 c27 21 36 36 36 57 0 55 8 63 61 57 26 -3 80
-22 120 -42z m-363 -93 c27 -18 66 -162 43 -162 -18 0 -32 29 -25 54 4 16 2
26 -5 26 -6 0 -11 9 -11 19 0 10 -9 29 -19 42 l-20 24 -22 -22 c-27 -26 -30
-77 -6 -101 16 -15 16 -14 7 18 -10 36 -5 70 10 70 16 0 21 -19 10 -39 -8 -16
-5 -26 16 -50 21 -25 23 -31 9 -31 -9 0 -13 -5 -9 -11 3 -6 15 -9 25 -6 12 3
19 0 19 -9 0 -8 -10 -14 -24 -14 -17 0 -34 14 -60 49 -40 54 -47 102 -19 133
17 19 58 24 81 10z m-4 -232 c25 0 36 -34 36 -109 l0 -70 56 -53 c43 -41 67
-76 104 -153 53 -109 94 -173 65 -101 -8 21 -15 40 -15 42 0 2 12 -8 27 -22
14 -13 37 -27 49 -30 20 -5 21 -9 13 -31 -14 -38 -12 -38 31 1 22 20 42 36 44
36 2 0 1 -11 -2 -25 -3 -20 -1 -24 12 -19 33 13 15 -26 -23 -50 -49 -32 -64
-52 -30 -42 13 3 38 9 54 13 27 6 29 5 16 -10 -18 -22 -83 -39 -118 -31 -27 6
-113 51 -113 59 0 2 25 -7 56 -21 108 -47 73 -19 -54 45 -231 116 -239 124
-250 276 l-6 80 -7 -54 c-4 -30 -4 -77 1 -105 4 -28 7 -52 6 -53 0 -1 -32 9
-71 23 -38 13 -83 24 -100 24 -60 1 -58 12 18 99 40 46 80 93 91 106 13 16 22
51 28 112 14 118 13 117 42 88 14 -14 32 -25 40 -25z m406 -60 c0 -4 -16 -10
-35 -12 l-35 -4 22 23 c16 17 24 20 35 12 7 -6 13 -15 13 -19z m90 -99 c17
-33 12 -46 -10 -26 -20 18 -21 18 -50 -3 -34 -26 -46 -27 -54 -7 -8 23 3 43
27 48 52 10 77 7 87 -12z m-822 -373 c50 -24 53 -34 10 -42 -18 -3 -49 -16
-68 -28 -26 -16 -52 -22 -101 -22 l-66 -1 26 34 c35 46 109 93 136 85 11 -3
39 -15 63 -26z m141 -103 c86 -78 161 -227 161 -322 0 -72 -32 -128 -94 -163
-66 -38 -76 -38 -31 1 48 42 88 113 80 139 -4 11 -11 17 -17 14 -6 -4 -6 1 1
14 24 45 10 54 -17 11 -38 -59 -77 -92 -42 -35 12 21 27 55 31 75 4 20 12 51
17 69 14 44 7 40 -19 -10 -43 -85 -202 -228 -252 -228 -32 0 -69 57 -91 140
l-15 55 0 -70 c-1 -38 6 -95 14 -125 18 -68 18 -70 2 -70 -8 0 -35 -11 -62
-24 l-48 -25 -41 24 c-23 13 -70 31 -105 39 -35 8 -69 23 -76 33 -35 46 -27
171 15 258 49 102 151 177 239 177 71 0 94 -15 89 -60 -3 -21 -8 -46 -13 -57
-6 -16 -5 -18 5 -8 7 6 21 36 30 65 25 74 81 118 151 118 42 0 54 -5 88 -35z
m1014 -21 c60 -20 131 -84 165 -148 25 -47 27 -58 24 -146 -9 -225 -11 -209
32 -279 40 -66 58 -146 41 -188 -5 -15 -11 -9 -30 27 -34 65 -87 123 -156 169
l-60 40 28 18 c16 11 46 18 75 18 26 0 48 4 48 8 0 13 -70 38 -83 31 -7 -4 -5
1 5 12 9 10 24 43 33 72 20 60 15 113 -15 172 -30 59 -39 55 -17 -8 22 -66 18
-121 -13 -181 -30 -59 -40 -59 -33 -2 3 28 0 79 -6 113 -13 62 -69 193 -111
256 l-22 32 24 0 c14 0 45 -7 71 -16z m-1593 -504 c43 0 127 -39 159 -73 l24
-26 31 26 c49 41 115 65 183 66 55 2 66 -1 89 -24 43 -43 71 -209 44 -260 -17
-32 -80 -24 -244 32 -149 50 -204 57 -222 28 -4 -7 6 -8 28 -4 49 9 103 -16
155 -72 l43 -45 -47 -31 c-40 -27 -140 -144 -130 -153 2 -2 26 18 53 44 58 56
122 88 213 108 93 19 139 17 196 -10 52 -24 98 -69 142 -139 14 -23 27 -43 28
-45 1 -1 34 4 73 11 l72 14 16 -56 c8 -31 27 -76 40 -100 29 -52 40 -41 -121
-121 -190 -94 -343 -126 -492 -101 -72 13 -174 54 -220 91 l-26 20 42 0 c22 0
64 9 93 20 36 14 77 20 128 20 88 0 170 19 258 60 55 26 124 70 110 70 -3 0
-31 -11 -63 -25 -64 -29 -177 -55 -233 -55 -37 0 -37 1 21 24 70 29 161 83
188 112 15 16 -3 10 -70 -23 -122 -60 -256 -93 -407 -100 -139 -7 -134 -10
-156 89 -8 36 -13 46 -16 30 -5 -35 16 -156 39 -217 19 -50 24 -55 62 -66 45
-12 57 -18 191 -103 l89 -56 -59 5 c-32 2 -98 7 -146 10 -106 6 -134 18 -159
66 -30 60 -66 197 -83 320 -9 63 -19 125 -22 139 -3 19 -2 21 5 10 6 -8 13
-31 16 -51 4 -21 13 -45 21 -56 13 -17 14 -16 8 9 -3 15 -1 67 5 115 14 105
48 184 115 266 66 82 26 56 -94 -59 -55 -52 -104 -94 -110 -94 -18 0 -40 65
-40 117 1 74 17 130 67 232 l47 95 15 -42 c14 -38 18 -42 51 -42z m1961 -366
c10 -46 6 -144 -7 -144 -3 0 -21 15 -40 34 -38 37 -38 31 -18 185 l7 54 23
-39 c13 -21 29 -62 35 -90z m-42 -192 c5 -21 14 -53 19 -72 l10 -35 2 45 c1
40 3 43 12 23 16 -34 28 -28 29 15 l1 37 13 -40 c8 -22 14 -61 14 -88 1 -51
-4 -56 -74 -71 l-31 -7 1 80 c0 90 -19 133 -22 47 0 -32 -10 -70 -22 -94 -20
-40 -24 -42 -66 -42 -51 0 -51 6 -3 78 33 47 68 141 68 181 l1 26 19 -23 c11
-13 24 -40 29 -60z m-925 -221 c3 -4 -14 -15 -37 -24 l-42 -16 30 24 c32 27
41 30 49 16z m-119 -112 c-158 -93 -258 -129 -360 -128 -108 1 -106 13 5 38
97 22 357 103 390 122 8 5 19 9 25 9 5 0 -22 -19 -60 -41z m-1435 -273 c0 -1
-5 -17 -11 -35 l-11 -31 -118 0 c-82 0 -120 -4 -127 -12 -17 -22 -53 -129 -47
-139 9 -16 111 -11 128 7 26 25 20 44 -13 44 -29 0 -30 1 -19 30 l10 31 71 -3
c85 -4 99 -17 78 -75 -31 -87 -82 -113 -224 -113 -100 0 -104 1 -130 28 l-28
29 27 74 c59 165 66 169 267 169 81 0 147 -2 147 -4z m185 -49 l10 -48 50 50
c49 50 50 51 111 51 l61 0 -103 -101 c-66 -65 -105 -112 -109 -130 -9 -40 -49
-69 -96 -69 -22 0 -39 2 -39 5 0 2 9 26 19 53 l19 48 -29 89 c-16 50 -29 94
-29 98 0 4 28 7 62 5 l62 -3 11 -48z m396 -14 c2 -125 5 -125 83 -23 l69 90
58 0 c33 0 59 -3 59 -7 0 -4 -23 -72 -52 -150 l-51 -143 -54 0 c-29 0 -53 4
-53 8 0 5 11 37 25 72 14 35 23 65 21 67 -1 2 -29 -31 -61 -72 -33 -43 -65
-75 -75 -75 -19 0 -29 39 -31 120 l-1 45 -27 -80 -28 -80 -56 -3 c-31 -2 -57
-1 -57 0 0 6 101 282 106 290 3 4 32 8 65 8 l59 0 1 -67z m656 32 l-10 -35
-113 0 c-103 0 -114 -2 -124 -20 -10 -19 -8 -20 104 -20 l115 0 -22 -62 c-21
-57 -26 -63 -82 -94 -59 -33 -62 -34 -183 -34 l-122 0 13 33 13 32 113 5 c85
4 114 9 121 20 8 13 -6 15 -100 18 -126 3 -126 3 -87 85 17 36 34 55 72 77 48
28 55 29 177 29 l126 1 -11 -35z m371 4 c17 -16 32 -34 32 -38 0 -7 -53 -157
-75 -213 -6 -14 -19 -18 -61 -18 l-53 0 6 30 6 30 -56 0 c-31 0 -59 5 -63 11
-3 6 -14 -7 -25 -30 -18 -41 -18 -41 -74 -41 -30 0 -55 3 -55 8 1 4 29 61 63
127 78 151 97 165 232 165 87 0 91 -1 123 -31z m420 0 c17 -16 32 -34 32 -38
0 -7 -53 -157 -75 -213 -6 -14 -19 -18 -61 -18 l-53 0 6 30 6 30 -56 0 c-31 0
-59 5 -63 11 -3 6 -14 -7 -25 -30 -18 -41 -18 -41 -74 -41 -30 0 -55 3 -55 8
1 4 29 61 63 127 78 151 97 165 232 165 87 0 91 -1 123 -31z m424 14 c22 -20
23 -41 3 -90 -16 -39 -68 -83 -99 -83 -16 0 -14 -7 13 -55 l32 -56 -72 3 -71
3 -26 62 c-15 35 -30 63 -33 63 -3 0 -16 -29 -28 -65 l-23 -65 -55 0 c-40 0
-54 3 -51 13 3 6 26 74 53 150 l49 137 145 0 c120 0 147 -3 163 -17z m438 13
c0 -1 -5 -17 -11 -35 -11 -30 -12 -31 -74 -31 l-62 0 -33 -92 c-38 -110 -63
-138 -122 -138 -34 0 -39 3 -33 18 14 36 75 205 75 208 0 2 -27 4 -60 4 -33 0
-60 2 -60 4 0 1 5 17 11 35 l11 31 179 0 c98 0 179 -2 179 -4z m160 0 c0 -2
-6 -19 -14 -37 -33 -83 -35 -79 42 -79 l70 0 19 58 20 57 58 3 c52 3 57 1 50
-15 -4 -10 -17 -47 -30 -83 -67 -190 -74 -200 -150 -200 l-35 0 20 53 c11 28
20 55 20 60 0 4 -24 7 -53 7 -29 0 -58 5 -64 11 -7 7 -17 -9 -34 -57 -13 -36
-29 -68 -35 -71 -6 -2 -32 -3 -57 -1 l-45 3 49 135 c27 74 51 141 54 148 3 7
24 12 60 12 30 0 55 -2 55 -4z m425 -13 c-4 -10 -24 -65 -45 -123 -21 -58 -41
-112 -45 -122 -9 -22 -56 -40 -93 -36 l-29 3 49 136 c54 148 62 157 132 158
32 1 37 -2 31 -16z m-1246 -559 c8 -7 -12 -25 -27 -22 -22 3 -42 -10 -42 -28
0 -19 20 -18 36 4 17 23 35 5 23 -25 -12 -34 -75 -33 -90 1 -20 43 27 93 76
79 11 -3 22 -7 24 -9z m-1967 -30 c-3 -28 -1 -35 9 -32 8 3 16 18 19 34 3 17
12 30 23 32 21 4 22 -17 3 -63 -13 -30 -20 -35 -50 -35 -26 0 -36 5 -41 20
-10 32 4 80 24 80 14 0 16 -7 13 -36z m232 1 c-5 -31 -4 -35 15 -35 12 0 21
-6 21 -15 0 -11 -11 -15 -41 -15 l-42 0 7 38 c3 20 6 43 6 50 0 6 9 12 20 12
18 0 20 -4 14 -35z m266 24 c0 -6 -9 -13 -20 -16 -11 -3 -20 -13 -20 -23 0
-30 -11 -50 -27 -50 -12 0 -14 8 -10 34 4 25 1 36 -9 40 -31 12 -11 26 36 26
30 0 50 -4 50 -11z m155 -21 c-12 -59 -16 -68 -32 -68 -12 0 -14 8 -9 38 3 20
6 43 6 50 0 6 9 12 21 12 18 0 20 -4 14 -32z m180 5 l7 -28 20 28 c11 15 28
27 37 27 16 0 17 -5 8 -50 -7 -38 -14 -50 -28 -50 -13 0 -17 5 -12 18 6 15 5
16 -11 2 -16 -13 -20 -12 -32 5 -14 18 -14 18 -14 -3 0 -16 -6 -22 -21 -22
-15 0 -19 5 -15 18 2 9 7 32 11 50 8 41 40 44 50 5z m294 -10 c6 -21 11 -44
11 -50 0 -16 -22 -17 -38 -1 -9 9 -17 9 -36 -1 -42 -23 -47 -8 -15 42 39 59
64 62 78 10z m241 22 c0 -8 -6 -15 -14 -15 -15 0 -26 -21 -26 -51 0 -12 -7
-19 -20 -19 -18 0 -20 4 -14 35 4 23 2 35 -5 35 -6 0 -11 7 -11 15 0 11 12 15
45 15 33 0 45 -4 45 -15z m210 5 c0 -5 -12 -11 -27 -11 -24 -2 -25 -2 -5 -6
32 -6 28 -33 -5 -34 l-28 -2 28 -4 c47 -7 33 -33 -19 -33 l-46 0 7 33 c13 66
14 67 56 67 21 0 39 -4 39 -10z m557 -5 c5 -14 7 -14 24 1 31 28 41 11 14 -26
-14 -18 -25 -40 -25 -47 0 -7 -8 -13 -17 -13 -13 0 -18 8 -18 28 -1 15 -4 37
-9 50 -6 17 -4 22 9 22 8 0 18 -7 22 -15z m228 -5 c3 -11 11 -20 16 -20 5 0
14 9 21 20 7 11 21 20 31 20 19 0 19 -18 1 -82 -7 -23 -34 -24 -34 -2 0 14 -3
14 -16 3 -13 -10 -17 -10 -24 1 -7 12 -10 11 -16 -3 -3 -9 -13 -17 -21 -17
-12 0 -13 8 -8 43 4 23 9 45 12 50 8 14 32 7 38 -13z m-1665 -197 c0 -10 -7
-14 -20 -10 -23 6 -54 -19 -44 -35 3 -5 15 -8 25 -5 10 3 23 -1 30 -9 8 -10 5
-15 -14 -19 -54 -14 -85 11 -73 58 10 41 96 58 96 20z m220 7 c0 -5 -12 -10
-27 -11 -27 0 -27 -1 -5 -9 30 -13 28 -30 -5 -31 l-28 -2 28 -4 c47 -7 33 -33
-19 -33 l-46 0 7 43 c4 23 9 45 12 50 6 11 83 9 83 -3z m176 -5 c4 -8 10 -15
15 -15 5 0 9 7 9 15 0 8 8 15 19 15 16 0 17 -4 8 -50 -11 -55 -35 -68 -55 -27
l-11 22 -7 -22 c-3 -13 -13 -23 -21 -23 -12 0 -14 8 -9 38 3 20 6 43 6 50 0
17 39 15 46 -3z m284 4 c0 -6 -9 -13 -19 -16 -12 -3 -21 -17 -26 -39 -4 -24
-11 -34 -25 -34 -16 0 -18 5 -13 35 4 23 2 35 -6 35 -6 0 -11 7 -11 15 0 11
12 15 50 15 30 0 50 -4 50 -11z m205 1 c-3 -5 -16 -11 -28 -11 -17 -1 -18 -2
-4 -6 28 -7 20 -33 -10 -34 l-28 -2 28 -4 c47 -7 33 -33 -19 -33 -38 0 -45 3
-40 18 2 9 7 32 11 50 6 30 9 32 51 32 28 0 43 -4 39 -10z m219 -12 c7 -13 6
-21 -6 -35 -8 -10 -13 -24 -11 -30 6 -16 -19 -17 -34 -2 -8 8 -13 8 -17 0 -4
-6 -14 -11 -22 -11 -13 0 -14 8 -9 43 4 23 9 46 12 50 9 14 76 3 87 -15z"/>
<path d="M2530 3842 c0 -3 113 -55 125 -57 24 -3 65 -18 65 -22 0 -3 -7 -11
-17 -18 -13 -10 -5 -11 43 -4 61 8 84 26 84 63 -1 19 -2 19 -13 5 -14 -18 -48
-12 -92 17 -21 14 -48 18 -111 19 -46 0 -84 -1 -84 -3z"/>
<path d="M2452 1258 c-5 -7 -19 -32 -31 -55 l-21 -43 65 0 65 0 15 36 c26 64
22 74 -34 74 -27 0 -53 -6 -59 -12z"/>
<path d="M2872 1258 c-5 -7 -19 -32 -31 -55 l-21 -43 65 0 65 0 15 36 c26 64
22 74 -34 74 -27 0 -53 -6 -59 -12z"/>
<path d="M3260 1244 c-16 -41 -13 -44 44 -44 45 0 58 4 70 22 28 40 21 48 -44
48 -56 0 -61 -2 -70 -26z"/>
<path d="M3050 529 c0 -5 5 -7 10 -4 6 3 10 8 10 11 0 2 -4 4 -10 4 -5 0 -10
-5 -10 -11z"/>
</g>
</svg>
